<?xml version="1.0" encoding="UTF-8" standalone="no"?>
<!-- Created with Inkscape (http://www.inkscape.org/) -->

<svg
   xmlns:dc="http://purl.org/dc/elements/1.1/"
   xmlns:cc="http://creativecommons.org/ns#"
   xmlns:rdf="http://www.w3.org/1999/02/22-rdf-syntax-ns#"
   xmlns:svg="http://www.w3.org/2000/svg"
   xmlns="http://www.w3.org/2000/svg"
   xmlns:xlink="http://www.w3.org/1999/xlink"
   xmlns:sodipodi="http://sodipodi.sourceforge.net/DTD/sodipodi-0.dtd"
   xmlns:inkscape="http://www.inkscape.org/namespaces/inkscape"
   width="128"
   height="128"
   id="svg2"
   version="1.1"
   inkscape:version="0.48.4 r9939"
   sodipodi:docname="fork.svg">
  <defs
     id="defs4">
    <linearGradient
       id="linearGradient4992">
      <stop
         style="stop-color:#db3c3c;stop-opacity:1;"
         offset="0"
         id="stop4994" />
      <stop
         style="stop-color:#e94f4f;stop-opacity:1;"
         offset="1"
         id="stop4996" />
    </linearGradient>
    <marker
       inkscape:stockid="Arrow1Lstart"
       orient="auto"
       refY="0.0"
       refX="0.0"
       id="Arrow1Lstart"
       style="overflow:visible">
      <path
         id="path3982"
         d="M 0.0,0.0 L 5.0,-5.0 L -12.5,0.0 L 5.0,5.0 L 0.0,0.0 z "
         style="fill-rule:evenodd;stroke:#000000;stroke-width:1.0pt"
         transform="scale(0.8) translate(12.5,0)" />
    </marker>
    <marker
       inkscape:stockid="Arrow1Lend"
       orient="auto"
       refY="0.0"
       refX="0.0"
       id="Arrow1Lend"
       style="overflow:visible;">
      <path
         id="path3985"
         d="M 0.0,0.0 L 5.0,-5.0 L -12.5,0.0 L 5.0,5.0 L 0.0,0.0 z "
         style="fill-rule:evenodd;stroke:#000000;stroke-width:1.0pt;"
         transform="scale(0.8) rotate(180) translate(12.5,0)" />
    </marker>
    <linearGradient
       inkscape:collect="always"
       xlink:href="#linearGradient4992"
       id="linearGradient4998"
       x1="64"
       y1="988.36218"
       x2="80"
       y2="972.36218"
       gradientUnits="userSpaceOnUse" />
  </defs>
  <sodipodi:namedview
     id="base"
     pagecolor="#ffffff"
     bordercolor="#666666"
     borderopacity="1.0"
     inkscape:pageopacity="0.0"
     inkscape:pageshadow="2"
     inkscape:zoom="4"
     inkscape:cx="99.675016"
     inkscape:cy="110.8148"
     inkscape:document-units="px"
     inkscape:current-layer="layer1"
     showgrid="true"
     inkscape:snap-smooth-nodes="true"
     inkscape:object-nodes="true"
     showguides="true"
     inkscape:guide-bbox="true">
    <inkscape:grid
       type="xygrid"
       id="grid2985"
       empspacing="4"
       visible="true"
       enabled="true"
       snapvisiblegridlinesonly="true" />
    <sodipodi:guide
       orientation="0,1"
       position="68,100"
       id="guide3790" />
    <sodipodi:guide
       orientation="1,0"
       position="28,88"
       id="guide3792" />
  </sodipodi:namedview>
  <metadata
     id="metadata7">
    <rdf:RDF>
      <cc:Work
         rdf:about="">
        <dc:format>image/svg+xml</dc:format>
        <dc:type
           rdf:resource="http://purl.org/dc/dcmitype/StillImage" />
        <dc:title></dc:title>
      </cc:Work>
    </rdf:RDF>
  </metadata>
  <g
     inkscape:label="Layer 1"
     inkscape:groupmode="layer"
     id="layer1"
     transform="translate(0,-924.36217)">
    <path
       style="fill:url(#linearGradient4998);fill-opacity:1;stroke:none"
       d="m 0,924.36217 128,128.00003 0,-31 -97,-97.00003 z"
       id="path2987"
       inkscape:connector-curvature="0"
       sodipodi:nodetypes="ccccc" />
    <path
       sodipodi:nodetypes="cc"
       inkscape:connector-curvature="0"
       id="path5004"
       d="M 2,925.36214 131,1054.3622"
       style="fill:none;stroke:#000000;stroke-width:1.41400002999999996;stroke-linecap:butt;stroke-linejoin:miter;stroke-miterlimit:4;stroke-opacity:0.50196081;stroke-dasharray:1.41400002999999996, 1.41400002999999996;stroke-dashoffset:0;marker-start:none;marker-mid:none" />
    <text
       transform="matrix(0.70710678,0.70710678,-0.70710678,0.70710678,0,0)"
       inkscape:transform-center-y="-3.5009833"
       inkscape:transform-center-x="-4.2545587"
       sodipodi:linespacing="125%"
       id="text5000"
       y="647.25854"
       x="764.63824"
       style="font-size:12px;font-style:normal;font-variant:normal;font-weight:normal;font-stretch:normal;text-align:center;line-height:125%;letter-spacing:0px;word-spacing:0px;text-anchor:middle;fill:#000000;fill-opacity:0.50196081;stroke:none;font-family:Roboto;-inkscape-font-specification:Roboto"
       xml:space="preserve"><tspan
         style="font-size:12px;fill:#000000;fill-opacity:0.50196081"
         y="647.25854"
         x="764.63824"
         id="tspan5002"
         sodipodi:role="line">Fork on GitHub</tspan></text>
    <path
       style="fill:none;stroke:#000000;stroke-width:1.41400002999999996;stroke-linecap:butt;stroke-linejoin:miter;stroke-miterlimit:4;stroke-opacity:0.50196081;stroke-dasharray:1.41400002999999996, 1.41400002999999996;stroke-dashoffset:0;marker-start:none;marker-mid:none"
       d="M 19.091121,915.40106 148.09112,1044.4012"
       id="path5006"
       inkscape:connector-curvature="0"
       sodipodi:nodetypes="cc" />
    <text
       xml:space="preserve"
       style="font-size:12px;font-style:normal;font-variant:normal;font-weight:normal;font-stretch:normal;text-align:center;line-height:125%;letter-spacing:0px;word-spacing:0px;text-anchor:middle;fill:#ffffff;fill-opacity:1;stroke:none;font-family:Roboto;-inkscape-font-specification:Roboto"
       x="763.9314"
       y="646.5517"
       id="text3757"
       sodipodi:linespacing="125%"
       inkscape:transform-center-x="-4.2545587"
       inkscape:transform-center-y="-3.5009833"
       transform="matrix(0.70710678,0.70710678,-0.70710678,0.70710678,0,0)"><tspan
         sodipodi:role="line"
         id="tspan3759"
         x="763.9314"
         y="646.5517"
         style="font-size:12px;fill:#ffffff;fill-opacity:1">Fork on GitHub</tspan></text>
    <path
       style="fill:#a4c639;fill-opacity:1;stroke:none"
       d="M 62.8125 -38.375 C 62.045643 -38.375 61.275106 -38.087606 60.6875 -37.5 C 59.512289 -36.324789 59.512289 -34.425211 60.6875 -33.25 L 80.5 -13.46875 C 81.675211 -12.293539 83.543539 -12.293539 84.71875 -13.46875 C 85.893961 -14.643961 85.893961 -16.512289 84.71875 -17.6875 L 64.9375 -37.5 C 64.349894 -38.087606 63.579357 -38.375 62.8125 -38.375 z M 57.15625 -33.96875 L 34.53125 -11.34375 L 58.5625 12.71875 L 81.1875 -9.90625 L 57.15625 -33.96875 z M 82.59375 -8.5 L 71.28125 2.8125 L 59.96875 14.125 C 63.786066 17.942316 69.055166 19.409394 74 18.5625 L 75.25 24.90625 A 1.002073 1.002073 0 0 0 77.21875 24.53125 L 75.9375 18.125 C 78.376535 17.386787 80.665829 16.052921 82.59375 14.125 C 84.528944 12.189806 85.857257 9.8868064 86.59375 7.4375 L 93.03125 8.71875 A 1.002073 1.002073 0 0 0 93.40625 6.75 L 87.0625 5.5 C 87.897822 0.56422611 86.403036 -4.6907145 82.59375 -8.5 z M 81.90625 0.09375 C 82.418095 0.09375 82.921976 0.29697571 83.3125 0.6875 C 84.093549 1.4685486 84.093549 2.7189514 83.3125 3.5 C 82.531451 4.2810486 81.281049 4.2810486 80.5 3.5 C 79.718951 2.7189514 79.718951 1.4685486 80.5 0.6875 C 80.890524 0.29697571 81.394405 0.09375 81.90625 0.09375 z M 44.25 2.4375 C 43.483143 2.4375 42.712606 2.7561443 42.125 3.34375 C 40.949789 4.5189615 40.949789 6.3872885 42.125 7.5625 L 50.78125 16.25 C 51.956461 17.425211 53.856039 17.425211 55.03125 16.25 C 56.206461 15.074789 56.206461 13.175211 55.03125 12 L 46.375 3.34375 C 45.787394 2.7561443 45.016857 2.4375 44.25 2.4375 z M 70.59375 11.40625 C 71.105595 11.40625 71.609476 11.609476 72 12 C 72.781049 12.781049 72.781049 14.062701 72 14.84375 C 71.218951 15.624799 69.937299 15.624799 69.15625 14.84375 C 68.375201 14.062701 68.375201 12.781049 69.15625 12 C 69.546774 11.609476 70.081905 11.40625 70.59375 11.40625 z "
       transform="translate(0,924.36217)"
       id="path3794" />
    <path
       style="fill:none;stroke:#ffffff;stroke-width:1.41400003;stroke-linecap:butt;stroke-linejoin:miter;stroke-miterlimit:4;stroke-opacity:1;stroke-dasharray:1.41400003, 1.41400003;stroke-dashoffset:0;marker-start:none;marker-mid:none"
       d="M 2,924.36217 131,1053.3622"
       id="path3796"
       inkscape:connector-curvature="0"
       sodipodi:nodetypes="cc" />
    <path
       sodipodi:nodetypes="cc"
       inkscape:connector-curvature="0"
       id="path4976"
       d="M 19.091121,914.40109 148.09112,1043.4012"
       style="fill:none;stroke:#ffffff;stroke-width:1.41400003;stroke-linecap:butt;stroke-linejoin:miter;stroke-miterlimit:4;stroke-opacity:1;stroke-dasharray:1.41400003, 1.41400003;stroke-dashoffset:0;marker-start:none;marker-mid:none" />
    <path
       id="path5031"
       transform="translate(0,924.36217)"
       d="m 81.90625,0.09375 c 0.511845,0 1.015726,0.20322571 1.40625,0.59375 0.781049,0.7810486 0.781049,2.0314514 0,2.8125 -0.781049,0.7810486 -2.031451,0.7810486 -2.8125,0 -0.781049,-0.7810486 -0.781049,-2.0314514 0,-2.8125 0.390524,-0.39052429 0.894405,-0.59375 1.40625,-0.59375 z m -11.3125,11.3125 c 0.511845,0 1.015726,0.203226 1.40625,0.59375 0.781049,0.781049 0.781049,2.062701 0,2.84375 -0.781049,0.781049 -2.062701,0.781049 -2.84375,0 -0.781049,-0.781049 -0.781049,-2.062701 0,-2.84375 0.390524,-0.390524 0.925655,-0.59375 1.4375,-0.59375 z"
       style="fill:#ffffff;fill-opacity:1;stroke:none"
       inkscape:connector-curvature="0"
       sodipodi:nodetypes="ssssssssssss" />
  </g>
</svg>
